<?xml version="1.0" encoding="UTF-8" standalone="no"?>
<!DOCTYPE svg PUBLIC "-//W3C//DTD SVG 1.1//EN"
 "http://www.w3.org/Graphics/SVG/1.1/DTD/svg11.dtd">
<!-- Generated by graphviz version 2.38.0 (20140413.2041)
 -->
<!-- Title: recursion_tree Pages: 1 -->
<svg width="566pt" height="1349pt"
 viewBox="0.00 0.00 566.00 1349.00" xmlns="http://www.w3.org/2000/svg" xmlns:xlink="http://www.w3.org/1999/xlink">
<g id="graph0" class="graph" transform="scale(1 1) rotate(0) translate(4 1345)">
<title>recursion_tree</title>
<polygon fill="white" stroke="none" points="-4,4 -4,-1345 562,-1345 562,4 -4,4"/>
<!-- 2 -->
<g id="node1" class="node"><title>2</title>
<polygon fill="white" stroke="black" points="449,-1254 353,-1254 353,-1218 449,-1218 449,-1254"/>
<text text-anchor="middle" x="401" y="-1232.3" font-family="Times,serif" font-size="14.00">11 (25 10 5 1)</text>
</g>
<!-- 1 -->
<g id="node2" class="node"><title>1</title>
<polygon fill="white" stroke="black" points="518.5,-1341 405.5,-1341 405.5,-1305 518.5,-1305 518.5,-1341"/>
<text text-anchor="middle" x="462" y="-1319.3" font-family="Times,serif" font-size="14.00">11 (50 25 10 5 1)</text>
</g>
<!-- 2&#45;&gt;1 -->
<g id="edge1" class="edge"><title>2&#45;&gt;1</title>
<path fill="none" stroke="black" d="M413.344,-1254.2C422.026,-1266.3 433.793,-1282.7 443.581,-1296.33"/>
<polygon fill="black" stroke="black" points="441,-1298.74 449.674,-1304.82 446.687,-1294.66 441,-1298.74"/>
</g>
<!-- 4 -->
<g id="node3" class="node"><title>4</title>
<polygon fill="white" stroke="black" points="377,-1167 299,-1167 299,-1131 377,-1131 377,-1167"/>
<text text-anchor="middle" x="338" y="-1145.3" font-family="Times,serif" font-size="14.00">11 (10 5 1)</text>
</g>
<!-- 4&#45;&gt;2 -->
<g id="edge2" class="edge"><title>4&#45;&gt;2</title>
<path fill="none" stroke="black" d="M350.749,-1167.2C359.801,-1179.41 372.1,-1196.01 382.265,-1209.72"/>
<polygon fill="black" stroke="black" points="379.504,-1211.87 388.27,-1217.82 385.127,-1207.71 379.504,-1211.87"/>
</g>
<!-- 8 -->
<g id="node4" class="node"><title>8</title>
<polygon fill="white" stroke="black" points="306.5,-1080 245.5,-1080 245.5,-1044 306.5,-1044 306.5,-1080"/>
<text text-anchor="middle" x="276" y="-1058.3" font-family="Times,serif" font-size="14.00">11 (5 1)</text>
</g>
<!-- 8&#45;&gt;4 -->
<g id="edge3" class="edge"><title>8&#45;&gt;4</title>
<path fill="none" stroke="black" d="M288.547,-1080.2C297.455,-1092.41 309.559,-1109.01 319.562,-1122.72"/>
<polygon fill="black" stroke="black" points="316.751,-1124.81 325.472,-1130.82 322.407,-1120.68 316.751,-1124.81"/>
</g>
<!-- 16 -->
<g id="node5" class="node"><title>16</title>
<polygon fill="white" stroke="black" points="126,-993 72,-993 72,-957 126,-957 126,-993"/>
<text text-anchor="middle" x="99" y="-971.3" font-family="Times,serif" font-size="14.00">11 (1)</text>
</g>
<!-- 16&#45;&gt;8 -->
<g id="edge4" class="edge"><title>16&#45;&gt;8</title>
<path fill="none" stroke="black" d="M126.268,-989.095C155.696,-1003.23 202.842,-1025.87 236.363,-1041.97"/>
<polygon fill="black" stroke="black" points="234.901,-1045.15 245.431,-1046.32 237.932,-1038.84 234.901,-1045.15"/>
</g>
<!-- 32 -->
<g id="node6" class="node"><title>32</title>
<ellipse fill="#f4cae4" stroke="black" cx="27" cy="-888" rx="27" ry="18"/>
<text text-anchor="middle" x="27" y="-884.3" font-family="Times,serif" font-size="14.00">0</text>
</g>
<!-- 32&#45;&gt;16 -->
<g id="edge5" class="edge"><title>32&#45;&gt;16</title>
<path fill="none" stroke="black" d="M39.8722,-904.196C50.452,-916.686 65.6535,-934.633 77.9933,-949.2"/>
<polygon fill="black" stroke="black" points="75.3727,-951.522 84.5069,-956.89 80.7141,-946.997 75.3727,-951.522"/>
</g>
<!-- 33 -->
<g id="node7" class="node"><title>33</title>
<polygon fill="white" stroke="black" points="126,-906 72,-906 72,-870 126,-870 126,-906"/>
<text text-anchor="middle" x="99" y="-884.3" font-family="Times,serif" font-size="14.00">10 (1)</text>
</g>
<!-- 33&#45;&gt;16 -->
<g id="edge6" class="edge"><title>33&#45;&gt;16</title>
<path fill="none" stroke="black" d="M99,-906.201C99,-917.837 99,-933.452 99,-946.763"/>
<polygon fill="black" stroke="black" points="95.5001,-946.825 99,-956.825 102.5,-946.825 95.5001,-946.825"/>
<text text-anchor="middle" x="106.5" y="-927.8" font-family="Times,serif" font-size="14.00"> &#160;1</text>
</g>
<!-- 66 -->
<g id="node8" class="node"><title>66</title>
<ellipse fill="#f4cae4" stroke="black" cx="27" cy="-801" rx="27" ry="18"/>
<text text-anchor="middle" x="27" y="-797.3" font-family="Times,serif" font-size="14.00">0</text>
</g>
<!-- 66&#45;&gt;33 -->
<g id="edge7" class="edge"><title>66&#45;&gt;33</title>
<path fill="none" stroke="black" d="M39.8722,-817.196C50.452,-829.686 65.6535,-847.633 77.9933,-862.2"/>
<polygon fill="black" stroke="black" points="75.3727,-864.522 84.5069,-869.89 80.7141,-859.997 75.3727,-864.522"/>
</g>
<!-- 67 -->
<g id="node9" class="node"><title>67</title>
<polygon fill="white" stroke="black" points="126,-819 72,-819 72,-783 126,-783 126,-819"/>
<text text-anchor="middle" x="99" y="-797.3" font-family="Times,serif" font-size="14.00">9 (1)</text>
</g>
<!-- 67&#45;&gt;33 -->
<g id="edge8" class="edge"><title>67&#45;&gt;33</title>
<path fill="none" stroke="black" d="M99,-819.201C99,-830.837 99,-846.452 99,-859.763"/>
<polygon fill="black" stroke="black" points="95.5001,-859.825 99,-869.825 102.5,-859.825 95.5001,-859.825"/>
<text text-anchor="middle" x="106.5" y="-840.8" font-family="Times,serif" font-size="14.00"> &#160;1</text>
</g>
<!-- 134 -->
<g id="node10" class="node"><title>134</title>
<ellipse fill="#f4cae4" stroke="black" cx="27" cy="-714" rx="27" ry="18"/>
<text text-anchor="middle" x="27" y="-710.3" font-family="Times,serif" font-size="14.00">0</text>
</g>
<!-- 134&#45;&gt;67 -->
<g id="edge9" class="edge"><title>134&#45;&gt;67</title>
<path fill="none" stroke="black" d="M39.8722,-730.196C50.452,-742.686 65.6535,-760.633 77.9933,-775.2"/>
<polygon fill="black" stroke="black" points="75.3727,-777.522 84.5069,-782.89 80.7141,-772.997 75.3727,-777.522"/>
</g>
<!-- 135 -->
<g id="node11" class="node"><title>135</title>
<polygon fill="white" stroke="black" points="126,-732 72,-732 72,-696 126,-696 126,-732"/>
<text text-anchor="middle" x="99" y="-710.3" font-family="Times,serif" font-size="14.00">8 (1)</text>
</g>
<!-- 135&#45;&gt;67 -->
<g id="edge10" class="edge"><title>135&#45;&gt;67</title>
<path fill="none" stroke="black" d="M99,-732.201C99,-743.837 99,-759.452 99,-772.763"/>
<polygon fill="black" stroke="black" points="95.5001,-772.825 99,-782.825 102.5,-772.825 95.5001,-772.825"/>
<text text-anchor="middle" x="106.5" y="-753.8" font-family="Times,serif" font-size="14.00"> &#160;1</text>
</g>
<!-- 270 -->
<g id="node12" class="node"><title>270</title>
<ellipse fill="#f4cae4" stroke="black" cx="65" cy="-627" rx="27" ry="18"/>
<text text-anchor="middle" x="65" y="-623.3" font-family="Times,serif" font-size="14.00">0</text>
</g>
<!-- 270&#45;&gt;135 -->
<g id="edge11" class="edge"><title>270&#45;&gt;135</title>
<path fill="none" stroke="black" d="M71.7173,-644.793C76.4826,-656.707 82.9746,-672.937 88.4303,-686.576"/>
<polygon fill="black" stroke="black" points="85.2166,-687.966 92.1803,-695.951 91.716,-685.366 85.2166,-687.966"/>
</g>
<!-- 271 -->
<g id="node13" class="node"><title>271</title>
<polygon fill="white" stroke="black" points="164,-645 110,-645 110,-609 164,-609 164,-645"/>
<text text-anchor="middle" x="137" y="-623.3" font-family="Times,serif" font-size="14.00">7 (1)</text>
</g>
<!-- 271&#45;&gt;135 -->
<g id="edge12" class="edge"><title>271&#45;&gt;135</title>
<path fill="none" stroke="black" d="M129.31,-645.201C124.005,-657.068 116.85,-673.072 110.824,-686.551"/>
<polygon fill="black" stroke="black" points="107.565,-685.267 106.678,-695.825 113.955,-688.124 107.565,-685.267"/>
<text text-anchor="middle" x="128.5" y="-666.8" font-family="Times,serif" font-size="14.00"> &#160;1</text>
</g>
<!-- 542 -->
<g id="node14" class="node"><title>542</title>
<ellipse fill="#f4cae4" stroke="black" cx="114" cy="-540" rx="27" ry="18"/>
<text text-anchor="middle" x="114" y="-536.3" font-family="Times,serif" font-size="14.00">0</text>
</g>
<!-- 542&#45;&gt;271 -->
<g id="edge13" class="edge"><title>542&#45;&gt;271</title>
<path fill="none" stroke="black" d="M118.544,-557.793C121.736,-569.591 126.074,-585.622 129.742,-599.178"/>
<polygon fill="black" stroke="black" points="126.396,-600.212 132.387,-608.951 133.153,-598.384 126.396,-600.212"/>
</g>
<!-- 543 -->
<g id="node15" class="node"><title>543</title>
<polygon fill="white" stroke="black" points="213,-558 159,-558 159,-522 213,-522 213,-558"/>
<text text-anchor="middle" x="186" y="-536.3" font-family="Times,serif" font-size="14.00">6 (1)</text>
</g>
<!-- 543&#45;&gt;271 -->
<g id="edge14" class="edge"><title>543&#45;&gt;271</title>
<path fill="none" stroke="black" d="M176.084,-558.201C169.177,-570.183 159.838,-586.383 152.021,-599.943"/>
<polygon fill="black" stroke="black" points="148.863,-598.413 146.901,-608.825 154.928,-601.909 148.863,-598.413"/>
<text text-anchor="middle" x="172.5" y="-579.8" font-family="Times,serif" font-size="14.00"> &#160;1</text>
</g>
<!-- 1086 -->
<g id="node16" class="node"><title>1086</title>
<ellipse fill="#f4cae4" stroke="black" cx="152" cy="-453" rx="27" ry="18"/>
<text text-anchor="middle" x="152" y="-449.3" font-family="Times,serif" font-size="14.00">0</text>
</g>
<!-- 1086&#45;&gt;543 -->
<g id="edge15" class="edge"><title>1086&#45;&gt;543</title>
<path fill="none" stroke="black" d="M158.717,-470.793C163.483,-482.707 169.975,-498.937 175.43,-512.576"/>
<polygon fill="black" stroke="black" points="172.217,-513.966 179.18,-521.951 178.716,-511.366 172.217,-513.966"/>
</g>
<!-- 1087 -->
<g id="node17" class="node"><title>1087</title>
<polygon fill="white" stroke="black" points="251,-471 197,-471 197,-435 251,-435 251,-471"/>
<text text-anchor="middle" x="224" y="-449.3" font-family="Times,serif" font-size="14.00">5 (1)</text>
</g>
<!-- 1087&#45;&gt;543 -->
<g id="edge16" class="edge"><title>1087&#45;&gt;543</title>
<path fill="none" stroke="black" d="M216.31,-471.201C211.005,-483.068 203.85,-499.072 197.824,-512.551"/>
<polygon fill="black" stroke="black" points="194.565,-511.267 193.678,-521.825 200.955,-514.124 194.565,-511.267"/>
<text text-anchor="middle" x="215.5" y="-492.8" font-family="Times,serif" font-size="14.00"> &#160;1</text>
</g>
<!-- 2174 -->
<g id="node18" class="node"><title>2174</title>
<ellipse fill="#f4cae4" stroke="black" cx="188" cy="-366" rx="27" ry="18"/>
<text text-anchor="middle" x="188" y="-362.3" font-family="Times,serif" font-size="14.00">0</text>
</g>
<!-- 2174&#45;&gt;1087 -->
<g id="edge17" class="edge"><title>2174&#45;&gt;1087</title>
<path fill="none" stroke="black" d="M195.112,-383.793C200.158,-395.707 207.032,-411.937 212.809,-425.576"/>
<polygon fill="black" stroke="black" points="209.656,-427.107 216.779,-434.951 216.102,-424.378 209.656,-427.107"/>
</g>
<!-- 2175 -->
<g id="node19" class="node"><title>2175</title>
<polygon fill="white" stroke="black" points="287,-384 233,-384 233,-348 287,-348 287,-384"/>
<text text-anchor="middle" x="260" y="-362.3" font-family="Times,serif" font-size="14.00">4 (1)</text>
</g>
<!-- 2175&#45;&gt;1087 -->
<g id="edge18" class="edge"><title>2175&#45;&gt;1087</title>
<path fill="none" stroke="black" d="M252.715,-384.201C247.689,-396.068 240.911,-412.072 235.202,-425.551"/>
<polygon fill="black" stroke="black" points="231.951,-424.251 231.274,-434.825 238.397,-426.981 231.951,-424.251"/>
<text text-anchor="middle" x="252.5" y="-405.8" font-family="Times,serif" font-size="14.00"> &#160;1</text>
</g>
<!-- 4350 -->
<g id="node20" class="node"><title>4350</title>
<ellipse fill="#f4cae4" stroke="black" cx="224" cy="-279" rx="27" ry="18"/>
<text text-anchor="middle" x="224" y="-275.3" font-family="Times,serif" font-size="14.00">0</text>
</g>
<!-- 4350&#45;&gt;2175 -->
<g id="edge19" class="edge"><title>4350&#45;&gt;2175</title>
<path fill="none" stroke="black" d="M231.112,-296.793C236.158,-308.707 243.032,-324.937 248.809,-338.576"/>
<polygon fill="black" stroke="black" points="245.656,-340.107 252.779,-347.951 252.102,-337.378 245.656,-340.107"/>
</g>
<!-- 4351 -->
<g id="node21" class="node"><title>4351</title>
<polygon fill="white" stroke="black" points="323,-297 269,-297 269,-261 323,-261 323,-297"/>
<text text-anchor="middle" x="296" y="-275.3" font-family="Times,serif" font-size="14.00">3 (1)</text>
</g>
<!-- 4351&#45;&gt;2175 -->
<g id="edge20" class="edge"><title>4351&#45;&gt;2175</title>
<path fill="none" stroke="black" d="M288.715,-297.201C283.689,-309.068 276.911,-325.072 271.202,-338.551"/>
<polygon fill="black" stroke="black" points="267.951,-337.251 267.274,-347.825 274.397,-339.981 267.951,-337.251"/>
<text text-anchor="middle" x="288.5" y="-318.8" font-family="Times,serif" font-size="14.00"> &#160;1</text>
</g>
<!-- 8702 -->
<g id="node22" class="node"><title>8702</title>
<ellipse fill="#f4cae4" stroke="black" cx="260" cy="-192" rx="27" ry="18"/>
<text text-anchor="middle" x="260" y="-188.3" font-family="Times,serif" font-size="14.00">0</text>
</g>
<!-- 8702&#45;&gt;4351 -->
<g id="edge21" class="edge"><title>8702&#45;&gt;4351</title>
<path fill="none" stroke="black" d="M267.112,-209.793C272.158,-221.707 279.032,-237.937 284.809,-251.576"/>
<polygon fill="black" stroke="black" points="281.656,-253.107 288.779,-260.951 288.102,-250.378 281.656,-253.107"/>
</g>
<!-- 8703 -->
<g id="node23" class="node"><title>8703</title>
<polygon fill="white" stroke="black" points="359,-210 305,-210 305,-174 359,-174 359,-210"/>
<text text-anchor="middle" x="332" y="-188.3" font-family="Times,serif" font-size="14.00">2 (1)</text>
</g>
<!-- 8703&#45;&gt;4351 -->
<g id="edge22" class="edge"><title>8703&#45;&gt;4351</title>
<path fill="none" stroke="black" d="M324.715,-210.201C319.689,-222.068 312.911,-238.072 307.202,-251.551"/>
<polygon fill="black" stroke="black" points="303.951,-250.251 303.274,-260.825 310.397,-252.981 303.951,-250.251"/>
<text text-anchor="middle" x="324.5" y="-231.8" font-family="Times,serif" font-size="14.00"> &#160;1</text>
</g>
<!-- 17406 -->
<g id="node24" class="node"><title>17406</title>
<ellipse fill="#f4cae4" stroke="black" cx="296" cy="-105" rx="27" ry="18"/>
<text text-anchor="middle" x="296" y="-101.3" font-family="Times,serif" font-size="14.00">0</text>
</g>
<!-- 17406&#45;&gt;8703 -->
<g id="edge23" class="edge"><title>17406&#45;&gt;8703</title>
<path fill="none" stroke="black" d="M303.112,-122.793C308.158,-134.707 315.032,-150.937 320.809,-164.576"/>
<polygon fill="black" stroke="black" points="317.656,-166.107 324.779,-173.951 324.102,-163.378 317.656,-166.107"/>
</g>
<!-- 17407 -->
<g id="node25" class="node"><title>17407</title>
<polygon fill="white" stroke="black" points="395,-123 341,-123 341,-87 395,-87 395,-123"/>
<text text-anchor="middle" x="368" y="-101.3" font-family="Times,serif" font-size="14.00">1 (1)</text>
</g>
<!-- 17407&#45;&gt;8703 -->
<g id="edge24" class="edge"><title>17407&#45;&gt;8703</title>
<path fill="none" stroke="black" d="M360.715,-123.201C355.689,-135.068 348.911,-151.072 343.202,-164.551"/>
<polygon fill="black" stroke="black" points="339.951,-163.251 339.274,-173.825 346.397,-165.981 339.951,-163.251"/>
<text text-anchor="middle" x="360.5" y="-144.8" font-family="Times,serif" font-size="14.00"> &#160;1</text>
</g>
<!-- 34814 -->
<g id="node26" class="node"><title>34814</title>
<ellipse fill="#f4cae4" stroke="black" cx="332" cy="-18" rx="27" ry="18"/>
<text text-anchor="middle" x="332" y="-14.3" font-family="Times,serif" font-size="14.00">0</text>
</g>
<!-- 34814&#45;&gt;17407 -->
<g id="edge25" class="edge"><title>34814&#45;&gt;17407</title>
<path fill="none" stroke="black" d="M339.112,-35.7933C344.158,-47.7066 351.032,-63.9366 356.809,-77.5758"/>
<polygon fill="black" stroke="black" points="353.656,-79.1075 360.779,-86.9507 360.102,-76.3775 353.656,-79.1075"/>
</g>
<!-- 34815 -->
<g id="node27" class="node"><title>34815</title>
<ellipse fill="#b3e2cd" stroke="black" cx="404" cy="-18" rx="27" ry="18"/>
<text text-anchor="middle" x="404" y="-14.3" font-family="Times,serif" font-size="14.00">1</text>
</g>
<!-- 34815&#45;&gt;17407 -->
<g id="edge26" class="edge"><title>34815&#45;&gt;17407</title>
<path fill="none" stroke="black" d="M396.888,-35.7933C391.842,-47.7066 384.968,-63.9366 379.191,-77.5758"/>
<polygon fill="black" stroke="black" points="375.898,-76.3775 375.221,-86.9507 382.344,-79.1075 375.898,-76.3775"/>
<text text-anchor="middle" x="396.5" y="-57.8" font-family="Times,serif" font-size="14.00"> &#160;1</text>
</g>
<!-- 17 -->
<g id="node28" class="node"><title>17</title>
<polygon fill="white" stroke="black" points="303,-993 249,-993 249,-957 303,-957 303,-993"/>
<text text-anchor="middle" x="276" y="-971.3" font-family="Times,serif" font-size="14.00">6 (5 1)</text>
</g>
<!-- 17&#45;&gt;8 -->
<g id="edge27" class="edge"><title>17&#45;&gt;8</title>
<path fill="none" stroke="black" d="M276,-993.201C276,-1004.84 276,-1020.45 276,-1033.76"/>
<polygon fill="black" stroke="black" points="272.5,-1033.82 276,-1043.82 279.5,-1033.82 272.5,-1033.82"/>
<text text-anchor="middle" x="283.5" y="-1014.8" font-family="Times,serif" font-size="14.00"> &#160;5</text>
</g>
<!-- 34 -->
<g id="node29" class="node"><title>34</title>
<polygon fill="white" stroke="black" points="270,-906 216,-906 216,-870 270,-870 270,-906"/>
<text text-anchor="middle" x="243" y="-884.3" font-family="Times,serif" font-size="14.00">6 (1)</text>
</g>
<!-- 34&#45;&gt;17 -->
<g id="edge28" class="edge"><title>34&#45;&gt;17</title>
<path fill="none" stroke="black" d="M249.678,-906.201C254.24,-917.953 260.378,-933.762 265.579,-947.158"/>
<polygon fill="black" stroke="black" points="262.45,-948.769 269.332,-956.825 268.975,-946.236 262.45,-948.769"/>
</g>
<!-- 68 -->
<g id="node30" class="node"><title>68</title>
<ellipse fill="#f4cae4" stroke="black" cx="171" cy="-801" rx="27" ry="18"/>
<text text-anchor="middle" x="171" y="-797.3" font-family="Times,serif" font-size="14.00">0</text>
</g>
<!-- 68&#45;&gt;34 -->
<g id="edge29" class="edge"><title>68&#45;&gt;34</title>
<path fill="none" stroke="black" d="M183.872,-817.196C194.452,-829.686 209.653,-847.633 221.993,-862.2"/>
<polygon fill="black" stroke="black" points="219.373,-864.522 228.507,-869.89 224.714,-859.997 219.373,-864.522"/>
</g>
<!-- 69 -->
<g id="node31" class="node"><title>69</title>
<polygon fill="white" stroke="black" points="270,-819 216,-819 216,-783 270,-783 270,-819"/>
<text text-anchor="middle" x="243" y="-797.3" font-family="Times,serif" font-size="14.00">5 (1)</text>
</g>
<!-- 69&#45;&gt;34 -->
<g id="edge30" class="edge"><title>69&#45;&gt;34</title>
<path fill="none" stroke="black" d="M243,-819.201C243,-830.837 243,-846.452 243,-859.763"/>
<polygon fill="black" stroke="black" points="239.5,-859.825 243,-869.825 246.5,-859.825 239.5,-859.825"/>
<text text-anchor="middle" x="250.5" y="-840.8" font-family="Times,serif" font-size="14.00"> &#160;1</text>
</g>
<!-- 138 -->
<g id="node32" class="node"><title>138</title>
<ellipse fill="#f4cae4" stroke="black" cx="171" cy="-714" rx="27" ry="18"/>
<text text-anchor="middle" x="171" y="-710.3" font-family="Times,serif" font-size="14.00">0</text>
</g>
<!-- 138&#45;&gt;69 -->
<g id="edge31" class="edge"><title>138&#45;&gt;69</title>
<path fill="none" stroke="black" d="M183.872,-730.196C194.452,-742.686 209.653,-760.633 221.993,-775.2"/>
<polygon fill="black" stroke="black" points="219.373,-777.522 228.507,-782.89 224.714,-772.997 219.373,-777.522"/>
</g>
<!-- 139 -->
<g id="node33" class="node"><title>139</title>
<polygon fill="white" stroke="black" points="270,-732 216,-732 216,-696 270,-696 270,-732"/>
<text text-anchor="middle" x="243" y="-710.3" font-family="Times,serif" font-size="14.00">4 (1)</text>
</g>
<!-- 139&#45;&gt;69 -->
<g id="edge32" class="edge"><title>139&#45;&gt;69</title>
<path fill="none" stroke="black" d="M243,-732.201C243,-743.837 243,-759.452 243,-772.763"/>
<polygon fill="black" stroke="black" points="239.5,-772.825 243,-782.825 246.5,-772.825 239.5,-772.825"/>
<text text-anchor="middle" x="250.5" y="-753.8" font-family="Times,serif" font-size="14.00"> &#160;1</text>
</g>
<!-- 278 -->
<g id="node34" class="node"><title>278</title>
<ellipse fill="#f4cae4" stroke="black" cx="216" cy="-627" rx="27" ry="18"/>
<text text-anchor="middle" x="216" y="-623.3" font-family="Times,serif" font-size="14.00">0</text>
</g>
<!-- 278&#45;&gt;139 -->
<g id="edge33" class="edge"><title>278&#45;&gt;139</title>
<path fill="none" stroke="black" d="M221.334,-644.793C225.082,-656.591 230.174,-672.622 234.48,-686.178"/>
<polygon fill="black" stroke="black" points="231.221,-687.48 237.584,-695.951 237.893,-685.36 231.221,-687.48"/>
</g>
<!-- 279 -->
<g id="node35" class="node"><title>279</title>
<polygon fill="white" stroke="black" points="315,-645 261,-645 261,-609 315,-609 315,-645"/>
<text text-anchor="middle" x="288" y="-623.3" font-family="Times,serif" font-size="14.00">3 (1)</text>
</g>
<!-- 279&#45;&gt;139 -->
<g id="edge34" class="edge"><title>279&#45;&gt;139</title>
<path fill="none" stroke="black" d="M278.894,-645.201C272.55,-657.183 263.974,-673.383 256.795,-686.943"/>
<polygon fill="black" stroke="black" points="253.679,-685.349 252.093,-695.825 259.865,-688.624 253.679,-685.349"/>
<text text-anchor="middle" x="276.5" y="-666.8" font-family="Times,serif" font-size="14.00"> &#160;1</text>
</g>
<!-- 558 -->
<g id="node36" class="node"><title>558</title>
<ellipse fill="#f4cae4" stroke="black" cx="258" cy="-540" rx="27" ry="18"/>
<text text-anchor="middle" x="258" y="-536.3" font-family="Times,serif" font-size="14.00">0</text>
</g>
<!-- 558&#45;&gt;279 -->
<g id="edge35" class="edge"><title>558&#45;&gt;279</title>
<path fill="none" stroke="black" d="M263.927,-557.793C268.091,-569.591 273.749,-585.622 278.533,-599.178"/>
<polygon fill="black" stroke="black" points="275.354,-600.686 281.983,-608.951 281.955,-598.356 275.354,-600.686"/>
</g>
<!-- 559 -->
<g id="node37" class="node"><title>559</title>
<polygon fill="white" stroke="black" points="357,-558 303,-558 303,-522 357,-522 357,-558"/>
<text text-anchor="middle" x="330" y="-536.3" font-family="Times,serif" font-size="14.00">2 (1)</text>
</g>
<!-- 559&#45;&gt;279 -->
<g id="edge36" class="edge"><title>559&#45;&gt;279</title>
<path fill="none" stroke="black" d="M321.501,-558.201C315.637,-570.068 307.729,-586.072 301.069,-599.551"/>
<polygon fill="black" stroke="black" points="297.779,-598.309 296.487,-608.825 304.054,-601.41 297.779,-598.309"/>
<text text-anchor="middle" x="319.5" y="-579.8" font-family="Times,serif" font-size="14.00"> &#160;1</text>
</g>
<!-- 1118 -->
<g id="node38" class="node"><title>1118</title>
<ellipse fill="#f4cae4" stroke="black" cx="313" cy="-453" rx="27" ry="18"/>
<text text-anchor="middle" x="313" y="-449.3" font-family="Times,serif" font-size="14.00">0</text>
</g>
<!-- 1118&#45;&gt;559 -->
<g id="edge37" class="edge"><title>1118&#45;&gt;559</title>
<path fill="none" stroke="black" d="M316.44,-471.201C318.767,-482.837 321.89,-498.452 324.553,-511.763"/>
<polygon fill="black" stroke="black" points="321.172,-512.705 326.565,-521.825 328.036,-511.332 321.172,-512.705"/>
</g>
<!-- 1119 -->
<g id="node39" class="node"><title>1119</title>
<polygon fill="white" stroke="black" points="412,-471 358,-471 358,-435 412,-435 412,-471"/>
<text text-anchor="middle" x="385" y="-449.3" font-family="Times,serif" font-size="14.00">1 (1)</text>
</g>
<!-- 1119&#45;&gt;559 -->
<g id="edge38" class="edge"><title>1119&#45;&gt;559</title>
<path fill="none" stroke="black" d="M373.87,-471.201C366.042,-483.298 355.433,-499.695 346.608,-513.333"/>
<polygon fill="black" stroke="black" points="343.608,-511.527 341.114,-521.825 349.485,-515.33 343.608,-511.527"/>
<text text-anchor="middle" x="368.5" y="-492.8" font-family="Times,serif" font-size="14.00"> &#160;1</text>
</g>
<!-- 2238 -->
<g id="node40" class="node"><title>2238</title>
<ellipse fill="#f4cae4" stroke="black" cx="358" cy="-366" rx="27" ry="18"/>
<text text-anchor="middle" x="358" y="-362.3" font-family="Times,serif" font-size="14.00">0</text>
</g>
<!-- 2238&#45;&gt;1119 -->
<g id="edge39" class="edge"><title>2238&#45;&gt;1119</title>
<path fill="none" stroke="black" d="M363.334,-383.793C367.082,-395.591 372.174,-411.622 376.48,-425.178"/>
<polygon fill="black" stroke="black" points="373.221,-426.48 379.584,-434.951 379.893,-424.36 373.221,-426.48"/>
</g>
<!-- 2239 -->
<g id="node41" class="node"><title>2239</title>
<ellipse fill="#b3e2cd" stroke="black" cx="430" cy="-366" rx="27" ry="18"/>
<text text-anchor="middle" x="430" y="-362.3" font-family="Times,serif" font-size="14.00">1</text>
</g>
<!-- 2239&#45;&gt;1119 -->
<g id="edge40" class="edge"><title>2239&#45;&gt;1119</title>
<path fill="none" stroke="black" d="M421.324,-383.389C414.974,-395.383 406.226,-411.907 398.906,-425.734"/>
<polygon fill="black" stroke="black" points="395.699,-424.311 394.113,-434.786 401.885,-427.586 395.699,-424.311"/>
<text text-anchor="middle" x="418.5" y="-405.8" font-family="Times,serif" font-size="14.00"> &#160;1</text>
</g>
<!-- 35 -->
<g id="node42" class="node"><title>35</title>
<polygon fill="white" stroke="black" points="342,-906 288,-906 288,-870 342,-870 342,-906"/>
<text text-anchor="middle" x="315" y="-884.3" font-family="Times,serif" font-size="14.00">1 (5 1)</text>
</g>
<!-- 35&#45;&gt;17 -->
<g id="edge41" class="edge"><title>35&#45;&gt;17</title>
<path fill="none" stroke="black" d="M307.108,-906.201C301.663,-918.068 294.32,-934.072 288.135,-947.551"/>
<polygon fill="black" stroke="black" points="284.87,-946.276 283.88,-956.825 291.232,-949.195 284.87,-946.276"/>
<text text-anchor="middle" x="305.5" y="-927.8" font-family="Times,serif" font-size="14.00"> &#160;5</text>
</g>
<!-- 70 -->
<g id="node43" class="node"><title>70</title>
<polygon fill="white" stroke="black" points="342,-819 288,-819 288,-783 342,-783 342,-819"/>
<text text-anchor="middle" x="315" y="-797.3" font-family="Times,serif" font-size="14.00">1 (1)</text>
</g>
<!-- 70&#45;&gt;35 -->
<g id="edge42" class="edge"><title>70&#45;&gt;35</title>
<path fill="none" stroke="black" d="M315,-819.201C315,-830.837 315,-846.452 315,-859.763"/>
<polygon fill="black" stroke="black" points="311.5,-859.825 315,-869.825 318.5,-859.825 311.5,-859.825"/>
</g>
<!-- 140 -->
<g id="node44" class="node"><title>140</title>
<ellipse fill="#f4cae4" stroke="black" cx="315" cy="-714" rx="27" ry="18"/>
<text text-anchor="middle" x="315" y="-710.3" font-family="Times,serif" font-size="14.00">0</text>
</g>
<!-- 140&#45;&gt;70 -->
<g id="edge43" class="edge"><title>140&#45;&gt;70</title>
<path fill="none" stroke="black" d="M315,-732.201C315,-743.837 315,-759.452 315,-772.763"/>
<polygon fill="black" stroke="black" points="311.5,-772.825 315,-782.825 318.5,-772.825 311.5,-772.825"/>
</g>
<!-- 141 -->
<g id="node45" class="node"><title>141</title>
<ellipse fill="#b3e2cd" stroke="black" cx="387" cy="-714" rx="27" ry="18"/>
<text text-anchor="middle" x="387" y="-710.3" font-family="Times,serif" font-size="14.00">1</text>
</g>
<!-- 141&#45;&gt;70 -->
<g id="edge44" class="edge"><title>141&#45;&gt;70</title>
<path fill="none" stroke="black" d="M374.128,-730.196C363.548,-742.686 348.347,-760.633 336.007,-775.2"/>
<polygon fill="black" stroke="black" points="333.286,-772.997 329.493,-782.89 338.627,-777.522 333.286,-772.997"/>
<text text-anchor="middle" x="363.5" y="-753.8" font-family="Times,serif" font-size="14.00"> &#160;1</text>
</g>
<!-- 71 -->
<g id="node46" class="node"><title>71</title>
<ellipse fill="#fdcdac" stroke="black" cx="387" cy="-801" rx="27" ry="18"/>
<text text-anchor="middle" x="387" y="-797.3" font-family="Times,serif" font-size="14.00">0</text>
</g>
<!-- 71&#45;&gt;35 -->
<g id="edge45" class="edge"><title>71&#45;&gt;35</title>
<path fill="none" stroke="black" d="M374.128,-817.196C363.548,-829.686 348.347,-847.633 336.007,-862.2"/>
<polygon fill="black" stroke="black" points="333.286,-859.997 329.493,-869.89 338.627,-864.522 333.286,-859.997"/>
<text text-anchor="middle" x="363.5" y="-840.8" font-family="Times,serif" font-size="14.00"> &#160;5</text>
</g>
<!-- 9 -->
<g id="node47" class="node"><title>9</title>
<polygon fill="white" stroke="black" points="494.5,-1080 423.5,-1080 423.5,-1044 494.5,-1044 494.5,-1080"/>
<text text-anchor="middle" x="459" y="-1058.3" font-family="Times,serif" font-size="14.00">1 (10 5 1)</text>
</g>
<!-- 9&#45;&gt;4 -->
<g id="edge46" class="edge"><title>9&#45;&gt;4</title>
<path fill="none" stroke="black" d="M434.514,-1080.2C416.145,-1093.1 390.812,-1110.9 370.709,-1125.02"/>
<polygon fill="black" stroke="black" points="368.621,-1122.21 362.45,-1130.82 372.644,-1127.94 368.621,-1122.21"/>
<text text-anchor="middle" x="417" y="-1101.8" font-family="Times,serif" font-size="14.00"> &#160;10</text>
</g>
<!-- 18 -->
<g id="node48" class="node"><title>18</title>
<polygon fill="white" stroke="black" points="486,-993 432,-993 432,-957 486,-957 486,-993"/>
<text text-anchor="middle" x="459" y="-971.3" font-family="Times,serif" font-size="14.00">1 (5 1)</text>
</g>
<!-- 18&#45;&gt;9 -->
<g id="edge47" class="edge"><title>18&#45;&gt;9</title>
<path fill="none" stroke="black" d="M459,-993.201C459,-1004.84 459,-1020.45 459,-1033.76"/>
<polygon fill="black" stroke="black" points="455.5,-1033.82 459,-1043.82 462.5,-1033.82 455.5,-1033.82"/>
</g>
<!-- 36 -->
<g id="node49" class="node"><title>36</title>
<polygon fill="white" stroke="black" points="486,-906 432,-906 432,-870 486,-870 486,-906"/>
<text text-anchor="middle" x="459" y="-884.3" font-family="Times,serif" font-size="14.00">1 (1)</text>
</g>
<!-- 36&#45;&gt;18 -->
<g id="edge48" class="edge"><title>36&#45;&gt;18</title>
<path fill="none" stroke="black" d="M459,-906.201C459,-917.837 459,-933.452 459,-946.763"/>
<polygon fill="black" stroke="black" points="455.5,-946.825 459,-956.825 462.5,-946.825 455.5,-946.825"/>
</g>
<!-- 72 -->
<g id="node50" class="node"><title>72</title>
<ellipse fill="#f4cae4" stroke="black" cx="459" cy="-801" rx="27" ry="18"/>
<text text-anchor="middle" x="459" y="-797.3" font-family="Times,serif" font-size="14.00">0</text>
</g>
<!-- 72&#45;&gt;36 -->
<g id="edge49" class="edge"><title>72&#45;&gt;36</title>
<path fill="none" stroke="black" d="M459,-819.201C459,-830.837 459,-846.452 459,-859.763"/>
<polygon fill="black" stroke="black" points="455.5,-859.825 459,-869.825 462.5,-859.825 455.5,-859.825"/>
</g>
<!-- 73 -->
<g id="node51" class="node"><title>73</title>
<ellipse fill="#b3e2cd" stroke="black" cx="531" cy="-801" rx="27" ry="18"/>
<text text-anchor="middle" x="531" y="-797.3" font-family="Times,serif" font-size="14.00">1</text>
</g>
<!-- 73&#45;&gt;36 -->
<g id="edge50" class="edge"><title>73&#45;&gt;36</title>
<path fill="none" stroke="black" d="M518.128,-817.196C507.548,-829.686 492.347,-847.633 480.007,-862.2"/>
<polygon fill="black" stroke="black" points="477.286,-859.997 473.493,-869.89 482.627,-864.522 477.286,-859.997"/>
<text text-anchor="middle" x="507.5" y="-840.8" font-family="Times,serif" font-size="14.00"> &#160;1</text>
</g>
<!-- 37 -->
<g id="node52" class="node"><title>37</title>
<ellipse fill="#fdcdac" stroke="black" cx="531" cy="-888" rx="27" ry="18"/>
<text text-anchor="middle" x="531" y="-884.3" font-family="Times,serif" font-size="14.00">0</text>
</g>
<!-- 37&#45;&gt;18 -->
<g id="edge51" class="edge"><title>37&#45;&gt;18</title>
<path fill="none" stroke="black" d="M518.128,-904.196C507.548,-916.686 492.347,-934.633 480.007,-949.2"/>
<polygon fill="black" stroke="black" points="477.286,-946.997 473.493,-956.89 482.627,-951.522 477.286,-946.997"/>
<text text-anchor="middle" x="507.5" y="-927.8" font-family="Times,serif" font-size="14.00"> &#160;5</text>
</g>
<!-- 19 -->
<g id="node53" class="node"><title>19</title>
<ellipse fill="#fdcdac" stroke="black" cx="531" cy="-975" rx="27" ry="18"/>
<text text-anchor="middle" x="531" y="-971.3" font-family="Times,serif" font-size="14.00">0</text>
</g>
<!-- 19&#45;&gt;9 -->
<g id="edge52" class="edge"><title>19&#45;&gt;9</title>
<path fill="none" stroke="black" d="M518.128,-991.196C507.548,-1003.69 492.347,-1021.63 480.007,-1036.2"/>
<polygon fill="black" stroke="black" points="477.286,-1034 473.493,-1043.89 482.627,-1038.52 477.286,-1034"/>
<text text-anchor="middle" x="511" y="-1014.8" font-family="Times,serif" font-size="14.00"> &#160;10</text>
</g>
<!-- 5 -->
<g id="node54" class="node"><title>5</title>
<ellipse fill="#fdcdac" stroke="black" cx="422" cy="-1149" rx="27" ry="18"/>
<text text-anchor="middle" x="422" y="-1145.3" font-family="Times,serif" font-size="14.00">0</text>
</g>
<!-- 5&#45;&gt;2 -->
<g id="edge53" class="edge"><title>5&#45;&gt;2</title>
<path fill="none" stroke="black" d="M417.851,-1166.79C414.936,-1178.59 410.976,-1194.62 407.627,-1208.18"/>
<polygon fill="black" stroke="black" points="404.213,-1207.4 405.212,-1217.95 411.009,-1209.08 404.213,-1207.4"/>
<text text-anchor="middle" x="424" y="-1188.8" font-family="Times,serif" font-size="14.00"> &#160;25</text>
</g>
<!-- 3 -->
<g id="node55" class="node"><title>3</title>
<ellipse fill="#fdcdac" stroke="black" cx="494" cy="-1236" rx="27" ry="18"/>
<text text-anchor="middle" x="494" y="-1232.3" font-family="Times,serif" font-size="14.00">0</text>
</g>
<!-- 3&#45;&gt;1 -->
<g id="edge54" class="edge"><title>3&#45;&gt;1</title>
<path fill="none" stroke="black" d="M487.678,-1253.79C483.193,-1265.71 477.083,-1281.94 471.948,-1295.58"/>
<polygon fill="black" stroke="black" points="468.666,-1294.36 468.419,-1304.95 475.217,-1296.83 468.666,-1294.36"/>
<text text-anchor="middle" x="491" y="-1275.8" font-family="Times,serif" font-size="14.00"> &#160;50</text>
</g>
</g>
</svg>
